<svg width="50" height="50" viewBox="0 0 50 50" fill="none" xmlns="http://www.w3.org/2000/svg">
<rect x="15" y="5" width="5" height="8" fill="#256FFF"/>
<rect x="15" y="13" width="5" height="8" fill="#256FFF"/>
<rect x="15" y="21" width="5" height="8" fill="#256FFF"/>
<rect x="25" y="5" width="5" height="8" fill="#256FFF"/>
<rect x="30" y="5" width="5" height="8" fill="#256FFF"/>
<rect x="20" y="21" width="5" height="8" fill="#256FFF"/>
<rect x="25" y="21" width="5" height="8" fill="#256FFF"/>
<rect x="30" y="21" width="5" height="8" fill="#256FFF"/>
<rect x="30" y="13" width="5" height="8" fill="#256FFF"/>
<rect x="35" y="13" width="5" height="8" fill="#256FFF"/>
<rect x="20" y="5" width="5" height="8" fill="#256FFF"/>
<rect x="15" y="29" width="5" height="8" fill="#256FFF"/>
<rect x="15" y="37" width="5" height="8" fill="#256FFF"/>
<rect x="10" y="13" width="5" height="8" fill="#256FFF"/>
<rect x="10" y="21" width="5" height="8" fill="#256FFF"/>
<rect x="10" y="29" width="5" height="8" fill="#256FFF"/>
<rect x="10" y="37" width="5" height="8" fill="#256FFF"/>
</svg>
